<?xml version="1.0" encoding="UTF-8" standalone="no"?>
<!-- Generator: Adobe Illustrator 18.0.0, SVG Export Plug-In . SVG Version: 6.00 Build 0)  -->

<svg
   version="1.1"
   id="Capa_1"
   x="0px"
   y="0px"
   viewBox="0 0 958.673 958.673"
   style="enable-background:new 0 0 958.673 958.673;"
   xml:space="preserve"
   sodipodi:docname="mic-mute.svg"
   inkscape:version="1.1.2 (0a00cf5339, 2022-02-04, custom)"
   xmlns:inkscape="http://www.inkscape.org/namespaces/inkscape"
   xmlns:sodipodi="http://sodipodi.sourceforge.net/DTD/sodipodi-0.dtd"
   xmlns="http://www.w3.org/2000/svg"
   xmlns:svg="http://www.w3.org/2000/svg"><defs
   id="defs41" /><sodipodi:namedview
   id="namedview39"
   pagecolor="#ffffff"
   bordercolor="#666666"
   borderopacity="1.0"
   inkscape:pageshadow="2"
   inkscape:pageopacity="0.0"
   inkscape:pagecheckerboard="0"
   showgrid="false"
   inkscape:zoom="0.85013349"
   inkscape:cx="247.60817"
   inkscape:cy="495.21635"
   inkscape:window-width="1920"
   inkscape:window-height="989"
   inkscape:window-x="0"
   inkscape:window-y="0"
   inkscape:window-maximized="1"
   inkscape:current-layer="g6" />
<g
   id="g6">
	<path
   style="fill:#f2f2f2;fill-opacity:1;stroke-width:0.974474"
   d="m 301.64062,273.07853 v 208.34618 c 0,93.19178 79.55632,168.73935 177.69532,168.73935 98.139,0 177.69726,-75.54567 177.69726,-168.73935 v -6.9829 z"
   id="path2534" /><path
   id="path2"
   style="fill:#f2f2f2;fill-opacity:1;stroke-width:0.978616"
   d="M 479.33789 32 C 381.19789 32 301.64064 108.19198 301.64062 202.17969 L 301.64062 221.74414 L 657.0332 424.82227 L 657.0332 202.17969 C 657.0332 108.19198 577.47689 32 479.33789 32 z M 479.33594 57.994141 A 48.699726 47.719906 0 0 1 528.03711 105.71484 A 48.699726 47.719906 0 0 1 479.33594 153.43359 A 48.699726 47.719906 0 0 1 430.63672 105.71484 A 48.699726 47.719906 0 0 1 479.33594 57.994141 z " />
	<path
   d="m 174.80524,396.485 v 43.791 c 0,44.097 8.05728,86.897 23.94818,127.211 15.34015,38.919 37.29218,73.861 65.24757,103.859 27.95445,29.998 60.51812,53.554 96.78706,70.015 19.10877,8.673 38.81864,15.159 58.97954,19.451 V 918.16479 C 380.43267,930.75879 351.7532,912.369 351.7532,958.672 v 0 h 255.1686 v 0 c 0,-46.303 -28.67947,-27.91321 -68.01439,-40.50721 V 760.812 c 20.1609,-4.292 39.8717,-10.779 58.98048,-19.452 36.268,-16.461 68.83167,-40.017 96.78612,-70.015 27.95539,-29.997 49.90742,-64.94 65.24757,-103.859 15.8909,-40.314 23.94818,-83.115 23.94818,-127.211 v -43.791 c 0,-46.944 -35.4647,-85 -79.21221,-85 v 128.791 c 0,64.582 -23.4375,125.299 -65.99402,170.966 -42.55746,45.667 -99.14013,70.816 -159.32556,70.816 -60.18451,0 -116.76718,-25.15 -159.32463,-70.816 -42.55746,-45.667 -65.99403,-106.384 -65.99403,-170.966 v -128.79 c -43.74937,0 -79.21407,38.056 -79.21407,85 z"
   id="path4"
   style="fill:#f2f2f2;fill-opacity:1;stroke-width:0.965354"
   sodipodi:nodetypes="sscccccsccsccsccsscscscscs" />
<path
   id="path1048"
   style="fill:#ff0000;fill-rule:evenodd;stroke-width:1.17417"
   d="M 479.33594 67.494141 A 39.005421 38.220646 0 0 0 455.0332 75.919922 L 479.33789 98.03125 L 503.69141 75.873047 A 39.005421 38.220646 0 0 0 479.33594 67.494141 z M 511.51172 84.123047 L 487.78125 105.71484 L 511.4707 127.26758 A 39.005421 38.220646 0 0 0 518.3418 105.71484 A 39.005421 38.220646 0 0 0 511.51172 84.123047 z M 447.20312 84.160156 A 39.005421 38.220646 0 0 0 440.33203 105.71484 A 39.005421 38.220646 0 0 0 447.20312 127.26953 L 470.89258 105.71484 L 447.20312 84.160156 z M 479.33789 113.39648 L 455.0332 135.50977 A 39.005421 38.220646 0 0 0 479.33594 143.93555 A 39.005421 38.220646 0 0 0 503.64062 135.50977 L 479.33789 113.39648 z " /></g>
<g
   id="g8">
</g>
<g
   id="g10">
</g>
<g
   id="g12">
</g>
<g
   id="g14">
</g>
<g
   id="g16">
</g>
<g
   id="g18">
</g>
<g
   id="g20">
</g>
<g
   id="g22">
</g>
<g
   id="g24">
</g>
<g
   id="g26">
</g>
<g
   id="g28">
</g>
<g
   id="g30">
</g>
<g
   id="g32">
</g>
<g
   id="g34">
</g>
<g
   id="g36">
</g>
</svg>
