<?xml version="1.0" encoding="UTF-8" standalone="no"?>
<!-- Generator: Adobe Illustrator 18.0.0, SVG Export Plug-In . SVG Version: 6.00 Build 0)  -->

<svg
   version="1.1"
   id="Capa_1"
   x="0px"
   y="0px"
   viewBox="0 0 958.673 958.673"
   style="enable-background:new 0 0 958.673 958.673;"
   xml:space="preserve"
   sodipodi:docname="theatre-mic-svgrepo-com.svg"
   inkscape:version="1.1.2 (0a00cf5339, 2022-02-04, custom)"
   xmlns:inkscape="http://www.inkscape.org/namespaces/inkscape"
   xmlns:sodipodi="http://sodipodi.sourceforge.net/DTD/sodipodi-0.dtd"
   xmlns="http://www.w3.org/2000/svg"
   xmlns:svg="http://www.w3.org/2000/svg"><defs
   id="defs41" /><sodipodi:namedview
   id="namedview39"
   pagecolor="#ffffff"
   bordercolor="#666666"
   borderopacity="1.0"
   inkscape:pageshadow="2"
   inkscape:pageopacity="0.0"
   inkscape:pagecheckerboard="0"
   showgrid="false"
   inkscape:zoom="0.85013349"
   inkscape:cx="247.60817"
   inkscape:cy="495.21635"
   inkscape:window-width="1920"
   inkscape:window-height="989"
   inkscape:window-x="0"
   inkscape:window-y="0"
   inkscape:window-maximized="1"
   inkscape:current-layer="g6" />
<g
   id="g6">
	<path
   d="m 479.336,650.165 v 0 c 98.139,0 177.697,-79.557 177.697,-177.697 V 209.697 C 657.033,111.557 577.476,32 479.337,32 v 0 C 381.197,32 301.64,111.557 301.64,209.697 v 262.772 c 0,98.138 79.557,177.696 177.696,177.696 z"
   id="path2"
   style="fill:#f2f2f2;fill-opacity:1" />
	<path
   d="m 213.9807,396.485 v 43.791 c 0,44.097 7.02078,86.897 20.86745,127.211 13.36677,38.919 32.49486,73.861 56.85403,103.859 24.35835,29.998 52.73298,53.554 84.33624,70.015 16.65059,8.673 33.82495,15.159 51.39233,19.451 v 157.35279 c -34.27482,12.594 -59.26493,-5.79579 -59.26493,40.50721 v 0 h 222.34336 v 0 c 0,-46.303 -24.99011,-27.91321 -59.26493,-40.50721 V 760.812 c 17.56738,-4.292 34.74255,-10.779 51.39315,-19.452 31.60244,-16.461 59.97707,-40.017 84.33542,-70.015 24.35917,-29.997 43.48726,-64.94 56.85403,-103.859 13.84667,-40.314 20.86745,-83.115 20.86745,-127.211 v -43.791 c 0,-46.944 -30.90247,-85 -69.02224,-85 v 128.791 c 0,64.582 -20.42246,125.299 -57.50445,170.966 -37.08281,45.667 -86.38661,70.816 -138.8297,70.816 -52.44229,0 -101.74609,-25.15 -138.82889,-70.816 -37.08281,-45.667 -57.50446,-106.384 -57.50446,-170.966 v -128.79 c -38.12139,0 -69.02386,38.056 -69.02386,85 z"
   id="path4"
   style="fill:#f2f2f2;fill-opacity:1;stroke-width:0.901125"
   sodipodi:nodetypes="sscccccsccsccsccsscscscscs" />
</g>
<g
   id="g8">
</g>
<g
   id="g10">
</g>
<g
   id="g12">
</g>
<g
   id="g14">
</g>
<g
   id="g16">
</g>
<g
   id="g18">
</g>
<g
   id="g20">
</g>
<g
   id="g22">
</g>
<g
   id="g24">
</g>
<g
   id="g26">
</g>
<g
   id="g28">
</g>
<g
   id="g30">
</g>
<g
   id="g32">
</g>
<g
   id="g34">
</g>
<g
   id="g36">
</g>
</svg>
