<svg
   viewBox="0 0 660.1441 512.16766"
   width="660.1441"
   height="512.16766"
   xmlns="http://www.w3.org/2000/svg">
  <path
     id="path4"
     style="fill:#414141"
     d="m 235.81244,512.06028 c -16.09906,-2.24083 -7.15822,-26.17455 -11.39079,-37.22198 -4.88722,-57.63233 -9.56147,-115.26223 -14.43931,-172.87672 -15.19116,-27.39588 -29.94958,11.40003 -24.19171,27.56556 -2.71619,32.31224 -2.81357,65.4246 -7.0748,97.26832 -11.65913,16.02149 -25.90309,-3.88172 -21.75486,-17.07612 -3.78123,-37.20684 -7.11181,-74.53358 -12.0244,-111.58148 -11.62737,-15.99617 -25.50017,4.25905 -21.02445,17.7504 -2.69975,28.70742 -4.16265,57.70235 -7.72681,86.23953 -4.6899,10.92773 -22.439796,6.36313 -21.047365,-5.53924 -4.589648,-29.016 -6.54879,-58.60139 -12.569775,-87.35237 -8.23564,-20.21487 -33.098227,-19.87564 -48.842645,-9.27383 -12.480572,5.41687 -47.73583,-0.59726 -27.1502504,-16.60483 25.4829744,8.01728 34.2501864,-11.25429 35.0294504,-32.62673 6.304421,-27.69165 11.787006,-55.6689 18.82756,-83.27268 14.553141,-19.25536 27.325188,6.30573 24.9987,20.72613 5.001169,34.21019 7.9356,68.6729 14.50199,101.79407 15.205445,7.62522 7.970145,-25.63497 11.361705,-33.50579 4.15189,-46.54792 7.59412,-93.42652 12.12104,-139.77819 15.28694,-22.385289 27.28029,10.50437 23.52359,25.397 5.70668,49.24697 9.65456,98.96478 16.1893,147.82574 14.86844,6.64759 6.09695,-26.61481 9.83782,-35.32717 5.04708,-73.37943 8.61392,-147.02132 14.57398,-220.236895 16.66816,-16.569371 22.12384,10.666213 19.962,23.15554 6.41622,75.376155 12.34337,150.794715 18.8803,226.205435 23.66977,26.43469 22.46744,-26.66049 23.63119,-41.67705 6.85463,-78.83276 12.19236,-158.046532 20.23995,-236.619185 25.47331,-17.893183 19.62766,26.303152 22.91804,40.31052 8.56912,79.262025 16.8621,158.594085 25.84614,237.794195 24.76802,26.97558 26.56363,-27.84793 27.14709,-43.93831 8.39977,-77.6753 16.32416,-155.535563 25.46093,-233.052805 14.16627,-20.113282 26.10844,12.707274 21.18074,25.759321 7.11507,83.989074 13.66408,168.056284 21.09022,252.001584 6.49474,17.38463 28.77282,-0.77554 21.19635,-16.59017 7.09667,-77.84218 12.13562,-155.93496 20.10242,-233.647925 28.79104,-16.276212 16.57199,34.426903 21.13393,50.081366 4.476,68.391159 8.42202,136.842879 13.2782,205.206589 16.72987,1.86871 8.05505,-36.4545 13.43351,-51.02925 4.86758,-41.16349 7.47637,-83.28932 13.87918,-123.91013 31.25174,-18.87554 18.96536,40.00635 24.57128,56.95366 3.91139,39.29573 6.02746,79.02114 10.63539,118.18682 15.88372,7.26237 9.80184,-24.16625 13.71,-34.53812 4.54348,-29.06699 6.62405,-58.66585 12.36726,-87.42515 6.96587,-14.20975 24.8258,-4.18294 24.04228,9.23419 7.60797,33.90549 14.47226,68.05978 22.71215,101.87116 9.66076,8.48745 50.64008,-1.22745 27.72728,21.80662 -23.61162,7.59452 -46.41469,-19.85248 -67.37226,-1.61412 -15.21384,14.41897 -9.91873,38.06011 -14.92016,56.82672 -6.08911,16.12088 4.39869,54.59027 -20.97702,51.50004 -13.82645,-13.19867 -5.25669,-37.88609 -10.34789,-55.37651 -6.20984,-17.74093 6.89197,-56.80185 -17.37828,-59.38105 -12.81304,9.4135 -7.66337,30.00952 -10.92971,43.16947 -3.51009,30.16663 -5.78792,60.5508 -9.77585,90.55635 -3.62151,8.73937 -14.90665,8.74901 -19.76497,0.20578 -4.66247,-41.83613 -5.10937,-84.24345 -9.08251,-126.19263 -25.44599,-26.41856 -25.13505,29.06592 -25.62427,44.85329 -4.49195,53.77904 -8.43713,107.1392 -13.7629,160.95198 -14.29999,18.57507 -24.14047,-9.65427 -20.20603,-22.82651 -5.48076,-58.27166 -8.8109,-118.36481 -15.45741,-176.99336 -6.5885,-22.47416 -42.013,-15.57845 -41.19252,7.04839 -6.16527,55.14888 -11.36547,110.41856 -18.19846,165.42413 -9.73697,17.90167 -20.59293,-7.619 -17.47982,-18.18605 -5.79753,-51.17248 -10.52096,-102.55987 -16.99456,-153.59968 -6.03966,-22.71602 -41.80765,-16.58217 -41.40068,5.94934 -5.60801,64.3684 -9.98715,129.20286 -16.49773,193.28024 -1.27501,4.09677 -5.28037,6.34279 -9.51077,5.97255 z M 566.84665,384.47792 c 0.31457,-1.26542 0.1006,1.6176 0,0 z M 184.12171,362.2744 c 0.39372,-0.71245 0.1081,1.15579 0,0 z m 387.77158,-13.89673 c 0.39937,-0.71031 0.094,1.15843 0,0 z M 88.181045,347.8431 c 0.394998,-0.71092 0.105999,1.15713 0,0 z m 35.009045,-10.95695 c 0.39475,-0.71106 0.10678,1.15748 0,0 z m 411.28895,-26.99174 c 0.39754,-0.70777 0.0895,1.15969 0,0 z M 203.7432,293.74845 c 0.66064,-0.95199 0.32342,0.97819 0,0 z m 229.18289,-9.50948 c 0.39831,-0.71116 0.0926,1.15819 0,0 z m 113.57907,-67.88006 c 0.39752,-0.71064 0.0911,1.15827 0,0 z m -2.11684,-20.68921 c 0.23489,-1.20547 0.23521,1.20441 0,0 z M 55.707085,183.29818 c 0.579333,-1.19094 0.285325,0.6732 0,0 z M 542.22902,168.78944 c 0.3988,-0.71038 0.0947,1.15748 0,0 z M 453.23674,42.650225 c 0.39985,-0.709462 0.0935,1.158626 0,0 z" />
</svg>
