<?xml version="1.0" encoding="UTF-8" standalone="no"?>
<!-- Generator: Adobe Illustrator 19.0.0, SVG Export Plug-In . SVG Version: 6.00 Build 0)  -->

<svg
   xmlns:dc="http://purl.org/dc/elements/1.1/"
   xmlns:cc="http://creativecommons.org/ns#"
   xmlns:rdf="http://www.w3.org/1999/02/22-rdf-syntax-ns#"
   xmlns:svg="http://www.w3.org/2000/svg"
   xmlns="http://www.w3.org/2000/svg"
   xmlns:sodipodi="http://sodipodi.sourceforge.net/DTD/sodipodi-0.dtd"
   xmlns:inkscape="http://www.inkscape.org/namespaces/inkscape"
   version="1.1"
   id="Capa_1"
   x="0px"
   y="0px"
   viewBox="0 0 512 512"
   style="enable-background:new 0 0 512 512;"
   xml:space="preserve"
   sodipodi:docname="screen-rotate.svg"
   inkscape:version="0.92.5 (2060ec1f9f, 2020-04-08)"><metadata
   id="metadata55"><rdf:RDF><cc:Work
       rdf:about=""><dc:format>image/svg+xml</dc:format><dc:type
         rdf:resource="http://purl.org/dc/dcmitype/StillImage" /></cc:Work></rdf:RDF></metadata><defs
   id="defs53" /><sodipodi:namedview
   pagecolor="#ffffff"
   bordercolor="#666666"
   borderopacity="1"
   objecttolerance="10"
   gridtolerance="10"
   guidetolerance="10"
   inkscape:pageopacity="0"
   inkscape:pageshadow="2"
   inkscape:window-width="928"
   inkscape:window-height="489"
   id="namedview51"
   showgrid="false"
   inkscape:zoom="0.4609375"
   inkscape:cx="256"
   inkscape:cy="256"
   inkscape:window-x="0"
   inkscape:window-y="0"
   inkscape:window-maximized="0"
   inkscape:current-layer="Capa_1" />
<g
   id="g6"
   style="fill:#f2f2f2">
	<g
   id="g4"
   style="fill:#f2f2f2">
		<path
   d="M159.648,486.88l-16-74.24c-1.856-8.64-10.272-13.984-19.008-12.288c-8.64,1.888-14.112,10.368-12.256,19.04l8.288,38.432    C64.992,419.04,32,356.992,32,288c0-8.832-7.168-16-16-16c-8.832,0-16,7.168-16,16c0,74.4,34.88,144.288,92.672,189.312    l-45.632,2.72c-8.832,0.544-15.552,8.096-15.008,16.928C32.544,505.44,39.584,512,48,512c0.32,0,0.64,0,0.96-0.032l96-5.76    c4.672-0.288,8.96-2.56,11.808-6.272C159.584,496.224,160.64,491.424,159.648,486.88z"
   id="path2"
   style="fill:#f2f2f2" />
	</g>
</g>
<g
   id="g12"
   style="fill:#f2f2f2">
	<g
   id="g10"
   style="fill:#f2f2f2">
		<path
   d="M419.328,34.688l45.632-2.72c8.832-0.544,15.552-8.096,15.008-16.928C479.456,6.56,472.416,0,464,0    c-0.32,0-0.64,0-0.96,0.032l-96,5.76c-4.672,0.288-8.96,2.56-11.808,6.272c-2.816,3.712-3.872,8.512-2.88,13.056l16,74.24    c1.856,8.64,10.272,13.984,19.008,12.288c8.64-1.888,14.112-10.368,12.256-19.04l-8.256-38.432C447.008,92.96,480,155.008,480,224    c0,8.832,7.168,16,16,16c8.832,0,16-7.168,16-16C512,149.6,477.12,79.712,419.328,34.688z"
   id="path8"
   style="fill:#f2f2f2" />
	</g>
</g>
<g
   id="g18"
   style="fill:#f2f2f2">
	<g
   id="g16"
   style="fill:#f2f2f2">
		<path
   d="M459.648,278.624L233.376,52.352c-12.48-12.48-32.768-12.48-45.248,0L52.352,188.128c-12.48,12.48-12.48,32.768,0,45.248    l226.272,226.272c12.48,12.48,32.768,12.48,45.248,0l135.776-135.776C472.128,311.392,472.128,291.104,459.648,278.624z     M278.624,414.4L97.6,233.376L233.376,97.6L414.4,278.624L278.624,414.4z"
   id="path14"
   style="fill:#f2f2f2" />
	</g>
</g>
<g
   id="g20"
   style="fill:#f2f2f2">
</g>
<g
   id="g22"
   style="fill:#f2f2f2">
</g>
<g
   id="g24"
   style="fill:#f2f2f2">
</g>
<g
   id="g26"
   style="fill:#f2f2f2">
</g>
<g
   id="g28"
   style="fill:#f2f2f2">
</g>
<g
   id="g30"
   style="fill:#f2f2f2">
</g>
<g
   id="g32"
   style="fill:#f2f2f2">
</g>
<g
   id="g34"
   style="fill:#f2f2f2">
</g>
<g
   id="g36"
   style="fill:#f2f2f2">
</g>
<g
   id="g38"
   style="fill:#f2f2f2">
</g>
<g
   id="g40"
   style="fill:#f2f2f2">
</g>
<g
   id="g42"
   style="fill:#f2f2f2">
</g>
<g
   id="g44"
   style="fill:#f2f2f2">
</g>
<g
   id="g46"
   style="fill:#f2f2f2">
</g>
<g
   id="g48"
   style="fill:#f2f2f2">
</g>
</svg>