<?xml version="1.0" encoding="UTF-8" standalone="no"?>
<!-- Svg Vector Icons : http://www.onlinewebfonts.com/icon -->

<svg
   xmlns:dc="http://purl.org/dc/elements/1.1/"
   xmlns:cc="http://creativecommons.org/ns#"
   xmlns:rdf="http://www.w3.org/1999/02/22-rdf-syntax-ns#"
   xmlns:svg="http://www.w3.org/2000/svg"
   xmlns="http://www.w3.org/2000/svg"
   xmlns:sodipodi="http://sodipodi.sourceforge.net/DTD/sodipodi-0.dtd"
   xmlns:inkscape="http://www.inkscape.org/namespaces/inkscape"
   version="1.1"
   x="0px"
   y="0px"
   viewBox="0 0 1000 1000"
   enable-background="new 0 0 1000 1000"
   xml:space="preserve"
   id="svg48"
   sodipodi:docname="system-shutdown-solid.svg"
   inkscape:version="0.92.5 (2060ec1f9f, 2020-04-08)"><defs
   id="defs52" /><sodipodi:namedview
   pagecolor="#ffffff"
   bordercolor="#666666"
   borderopacity="1"
   objecttolerance="10"
   gridtolerance="10"
   guidetolerance="10"
   inkscape:pageopacity="0"
   inkscape:pageshadow="2"
   inkscape:window-width="1920"
   inkscape:window-height="995"
   id="namedview50"
   showgrid="false"
   inkscape:zoom="0.472"
   inkscape:cx="86.514693"
   inkscape:cy="406.98542"
   inkscape:window-x="0"
   inkscape:window-y="0"
   inkscape:window-maximized="1"
   inkscape:current-layer="g12" />
<metadata
   id="metadata2"> Svg Vector Icons : http://www.onlinewebfonts.com/icon <rdf:RDF><cc:Work
     rdf:about=""><dc:format>image/svg+xml</dc:format><dc:type
       rdf:resource="http://purl.org/dc/dcmitype/StillImage" /><dc:title /></cc:Work></rdf:RDF></metadata>
<g
   id="g46"><g
     id="g14"><g
       id="g12"><path
         style="opacity:1;fill:#f9f9f9;fill-opacity:1;stroke:none;stroke-width:8;stroke-linecap:square;stroke-linejoin:bevel;stroke-miterlimit:4;stroke-dasharray:none;stroke-opacity:1;paint-order:markers stroke fill"
         d="m 569.51075,47.325199 c 0.64977,1.738127 1.24654,3.501925 1.77148,5.296875 2,6.8 3.09961,14.000391 3.09961,21.400391 V 177.65723 A 328.3898,328.3898 0 0 1 828.38965,497.16699 328.3898,328.3898 0 0 1 500.00098,825.55566 328.3898,328.3898 0 0 1 171.61036,497.16699 328.3898,328.3898 0 0 1 421.38184,178.67285 V 74.022465 c 0,-7.4 1.09961,-14.600391 3.09961,-21.400391 0.43175,-1.476306 0.92099,-2.927047 1.4375,-4.365234 A 455.50845,455.50845 0 0 0 44.49121,497.16699 455.50845,455.50845 0 0 0 500.00098,952.6748 455.50845,455.50845 0 0 0 955.50879,497.16699 455.50845,455.50845 0 0 0 569.51075,47.325199 Z"
         id="path881"
         inkscape:connector-curvature="0" /><path
         d="m 497.88183,19.668233 c -25.16225,0 -46.3477,19.294172 -53.0721,45.626986 -1.4461,5.630911 -2.24145,11.593061 -2.24145,17.720811 v 119.40856 206.68774 c 0,34.9448 24.7284,63.34781 55.31355,63.34781 30.58515,0 55.31357,-28.32021 55.31357,-63.34781 V 202.42459 83.01603 c 0,-6.12775 -0.79537,-12.0899 -2.24147,-17.720811 -6.7244,-26.332814 -27.90985,-45.626986 -53.0721,-45.626986 z"
         id="path10"
         inkscape:connector-curvature="0"
         style="fill:#f9f9f9;stroke-width:1" /></g></g><g
     id="g16" /><g
     id="g18" /><g
     id="g20" /><g
     id="g22" /><g
     id="g24" /><g
     id="g26" /><g
     id="g28" /><g
     id="g30" /><g
     id="g32" /><g
     id="g34" /><g
     id="g36" /><g
     id="g38" /><g
     id="g40" /><g
     id="g42" /><g
     id="g44" /></g>
</svg>