<svg viewBox="0 0 492.883 492.883" xmlns="http://www.w3.org/2000/svg">
    <style type="text/css" id="current-color-scheme">
      .ColorScheme-Text {
        color:#fff;
      }
    </style>

   <g clip-rule="evenodd" fill-rule="evenodd">
      <path style="fill:currentColor;fill-opacity:1;stroke:none" class="ColorScheme-Text"
         d="m 122.941,374.241 c -20.1,-18.1 -34.6,-39.8 -44.1,-63.1 -25.2,-61.8 -13.4,-135.3 35.8,-186 l 45.4,45.4 c 2.5,2.5 7,0.7 7.6,-3 l 24.8,-162.3 c 0.4,-2.7 -1.9,-5 -4.6,-4.6 l -162.4,24.8 c -3.7,0.6 -5.5,5.1 -3,7.6 l 45.5,45.5 c -75.1,76.8 -87.9,192 -38.6,282 14.8,27.1 35.3,51.9 61.4,72.7 44.4,35.3 99,52.2 153.2,51.1 l 10.2,-66.7 c -46.7,4 -94.7,-10.4 -131.2,-43.4 z" />
      <path style="fill:currentColor;fill-opacity:1;stroke:none" class="ColorScheme-Text"
         d="m 424.941,414.341 c 75.1,-76.8 87.9,-192 38.6,-282 -14.8,-27.1 -35.3,-51.9 -61.4,-72.7 -44.4,-35.3 -99,-52.2 -153.2,-51.1 l -10.2,66.7 c 46.6,-4 94.7,10.4 131.2,43.4 20.1,18.1 34.6,39.8 44.1,63.1 25.2,61.8 13.4,135.3 -35.8,186 l -45.4,-45.4 c -2.5,-2.5 -7,-0.7 -7.6,3 l -24.8,162.3 c -0.4,2.7 1.9,5 4.6,4.6 l 162.4,-24.8 c 3.7,-0.6 5.4,-5.1 3,-7.6 z" />
   </g>
</svg>
