<?xml version="1.0" encoding="UTF-8" standalone="no"?>
<svg
   xmlns:dc="http://purl.org/dc/elements/1.1/"
   xmlns:cc="http://creativecommons.org/ns#"
   xmlns:rdf="http://www.w3.org/1999/02/22-rdf-syntax-ns#"
   xmlns:svg="http://www.w3.org/2000/svg"
   xmlns="http://www.w3.org/2000/svg"
   xmlns:sodipodi="http://sodipodi.sourceforge.net/DTD/sodipodi-0.dtd"
   xmlns:inkscape="http://www.inkscape.org/namespaces/inkscape"
   id="Capa_1"
   enable-background="new 0 0 480 480"
   viewBox="0 0 480 480"
   version="1.1"
   sodipodi:docname="volume-high.svg"
   inkscape:version="0.92.5 (2060ec1f9f, 2020-04-08)">
  <metadata
     id="metadata43">
    <rdf:RDF>
      <cc:Work
         rdf:about="">
        <dc:format>image/svg+xml</dc:format>
        <dc:type
           rdf:resource="http://purl.org/dc/dcmitype/StillImage" />
      </cc:Work>
    </rdf:RDF>
  </metadata>
  <defs
     id="defs41" />
  <sodipodi:namedview
     pagecolor="#ffffff"
     bordercolor="#666666"
     borderopacity="1"
     objecttolerance="10"
     gridtolerance="10"
     guidetolerance="10"
     inkscape:pageopacity="0"
     inkscape:pageshadow="2"
     inkscape:window-width="928"
     inkscape:window-height="489"
     id="namedview39"
     showgrid="false"
     inkscape:zoom="0.49166667"
     inkscape:cx="240"
     inkscape:cy="240"
     inkscape:window-x="0"
     inkscape:window-y="0"
     inkscape:window-maximized="0"
     inkscape:current-layer="Capa_1" />
  <path
     d="m278.944 17.577c-5.568-2.656-12.128-1.952-16.928 1.92l-155.648 124.512h-74.368c-17.632 0-32 14.368-32 32v128c0 17.664 14.368 32 32 32h74.368l155.616 124.512c2.912 2.304 6.464 3.488 10.016 3.488 2.368 0 4.736-.544 6.944-1.6 5.536-2.656 9.056-8.256 9.056-14.4v-416c0-6.144-3.52-11.744-9.056-14.432z"
     id="path2"
     style="fill:#ffffff" />
  <path
     d="m368.992 126.857c-6.304-6.208-16.416-6.112-22.624.128-6.208 6.304-6.144 16.416.128 22.656 24.192 23.872 37.504 55.968 37.504 90.368s-13.312 66.496-37.504 90.368c-6.272 6.176-6.336 16.32-.128 22.624 3.136 3.168 7.264 4.736 11.36 4.736 4.064 0 8.128-1.536 11.264-4.64 30.336-29.856 47.008-70.048 47.008-113.088s-16.672-83.232-47.008-113.152z"
     id="path4"
     style="fill:#ffffff" />
  <path
     d="m414.144 81.769c-6.304-6.24-16.416-6.176-22.656.096-6.208 6.272-6.144 16.416.096 22.624 36.384 36.064 56.416 84.192 56.416 135.52s-20.032 99.424-56.416 135.488c-6.24 6.24-6.304 16.384-.096 22.656 3.168 3.136 7.264 4.704 11.36 4.704 4.064 0 8.16-1.536 11.296-4.64 42.496-42.08 65.856-98.272 65.856-158.208s-23.36-116.128-65.856-158.24z"
     id="path6"
     style="fill:#ffffff" />
  <g
     id="g8"
     style="fill:#ffffff" />
  <g
     id="g10"
     style="fill:#ffffff" />
  <g
     id="g12"
     style="fill:#ffffff" />
  <g
     id="g14"
     style="fill:#ffffff" />
  <g
     id="g16"
     style="fill:#ffffff" />
  <g
     id="g18"
     style="fill:#ffffff" />
  <g
     id="g20"
     style="fill:#ffffff" />
  <g
     id="g22"
     style="fill:#ffffff" />
  <g
     id="g24"
     style="fill:#ffffff" />
  <g
     id="g26"
     style="fill:#ffffff" />
  <g
     id="g28"
     style="fill:#ffffff" />
  <g
     id="g30"
     style="fill:#ffffff" />
  <g
     id="g32"
     style="fill:#ffffff" />
  <g
     id="g34"
     style="fill:#ffffff" />
  <g
     id="g36"
     style="fill:#ffffff" />
</svg>
