<?xml version="1.0" encoding="UTF-8" standalone="no"?>
<svg
   xmlns:dc="http://purl.org/dc/elements/1.1/"
   xmlns:cc="http://creativecommons.org/ns#"
   xmlns:rdf="http://www.w3.org/1999/02/22-rdf-syntax-ns#"
   xmlns:svg="http://www.w3.org/2000/svg"
   xmlns="http://www.w3.org/2000/svg"
   xmlns:sodipodi="http://sodipodi.sourceforge.net/DTD/sodipodi-0.dtd"
   xmlns:inkscape="http://www.inkscape.org/namespaces/inkscape"
   id="Capa_1"
   enable-background="new 0 0 448.075 448.075"
   viewBox="0 0 448.075 448.075"
   version="1.1"
   sodipodi:docname="volume-mute.svg"
   inkscape:version="0.92.5 (2060ec1f9f, 2020-04-08)">
  <metadata
     id="metadata41">
    <rdf:RDF>
      <cc:Work
         rdf:about="">
        <dc:format>image/svg+xml</dc:format>
        <dc:type
           rdf:resource="http://purl.org/dc/dcmitype/StillImage" />
      </cc:Work>
    </rdf:RDF>
  </metadata>
  <defs
     id="defs39" />
  <sodipodi:namedview
     pagecolor="#ffffff"
     bordercolor="#666666"
     borderopacity="1"
     objecttolerance="10"
     gridtolerance="10"
     guidetolerance="10"
     inkscape:pageopacity="0"
     inkscape:pageshadow="2"
     inkscape:window-width="928"
     inkscape:window-height="489"
     id="namedview37"
     showgrid="false"
     inkscape:zoom="0.52669753"
     inkscape:cx="224.03751"
     inkscape:cy="224.03751"
     inkscape:window-x="0"
     inkscape:window-y="0"
     inkscape:window-maximized="0"
     inkscape:current-layer="Capa_1" />
  <path
     d="m352.021 16.075c0-6.08-3.52-11.84-8.96-14.4-5.76-2.88-12.16-1.92-16.96 1.92l-141.76 112.96 167.68 167.68z"
     id="path2"
     style="fill:#ffffff" />
  <path
     d="m443.349 420.747-416-416c-6.24-6.24-16.384-6.24-22.624 0s-6.24 16.384 0 22.624l100.672 100.704h-9.376c-9.92 0-18.56 4.48-24.32 11.52-4.8 5.44-7.68 12.8-7.68 20.48v128c0 17.6 14.4 32 32 32h74.24l155.84 124.48c2.88 2.24 6.4 3.52 9.92 3.52 2.24 0 4.8-.64 7.04-1.6 5.44-2.56 8.96-8.32 8.96-14.4v-57.376l68.672 68.672c3.136 3.136 7.232 4.704 11.328 4.704s8.192-1.568 11.328-4.672c6.24-6.272 6.24-16.384 0-22.656z"
     id="path4"
     style="fill:#ffffff" />
  <g
     id="g6"
     style="fill:#ffffff" />
  <g
     id="g8"
     style="fill:#ffffff" />
  <g
     id="g10"
     style="fill:#ffffff" />
  <g
     id="g12"
     style="fill:#ffffff" />
  <g
     id="g14"
     style="fill:#ffffff" />
  <g
     id="g16"
     style="fill:#ffffff" />
  <g
     id="g18"
     style="fill:#ffffff" />
  <g
     id="g20"
     style="fill:#ffffff" />
  <g
     id="g22"
     style="fill:#ffffff" />
  <g
     id="g24"
     style="fill:#ffffff" />
  <g
     id="g26"
     style="fill:#ffffff" />
  <g
     id="g28"
     style="fill:#ffffff" />
  <g
     id="g30"
     style="fill:#ffffff" />
  <g
     id="g32"
     style="fill:#ffffff" />
  <g
     id="g34"
     style="fill:#ffffff" />
</svg>
