<?xml version="1.0" encoding="UTF-8" standalone="no"?>
<!-- Generator: Adobe Illustrator 19.0.0, SVG Export Plug-In . SVG Version: 6.00 Build 0)  -->

<svg
   xmlns:dc="http://purl.org/dc/elements/1.1/"
   xmlns:cc="http://creativecommons.org/ns#"
   xmlns:rdf="http://www.w3.org/1999/02/22-rdf-syntax-ns#"
   xmlns:svg="http://www.w3.org/2000/svg"
   xmlns="http://www.w3.org/2000/svg"
   xmlns:sodipodi="http://sodipodi.sourceforge.net/DTD/sodipodi-0.dtd"
   xmlns:inkscape="http://www.inkscape.org/namespaces/inkscape"
   version="1.1"
   id="Layer_1"
   x="0px"
   y="0px"
   viewBox="0 0 317.016 317.016"
   style="enable-background:new 0 0 317.016 317.016;"
   xml:space="preserve"
   sodipodi:docname="wifi-svgrepo-com.svg"
   inkscape:version="0.92.5 (2060ec1f9f, 2020-04-08)"><metadata
   id="metadata47"><rdf:RDF><cc:Work
       rdf:about=""><dc:format>image/svg+xml</dc:format><dc:type
         rdf:resource="http://purl.org/dc/dcmitype/StillImage" /></cc:Work></rdf:RDF></metadata><defs
   id="defs45" /><sodipodi:namedview
   pagecolor="#ffffff"
   bordercolor="#666666"
   borderopacity="1"
   objecttolerance="10"
   gridtolerance="10"
   guidetolerance="10"
   inkscape:pageopacity="0"
   inkscape:pageshadow="2"
   inkscape:window-width="804"
   inkscape:window-height="480"
   id="namedview43"
   showgrid="false"
   inkscape:zoom="0.74444194"
   inkscape:cx="158.508"
   inkscape:cy="158.508"
   inkscape:window-x="0"
   inkscape:window-y="0"
   inkscape:window-maximized="0"
   inkscape:current-layer="g10" />
<g
   id="g10">
	<path
   style="fill:#f9f9f9"
   d="M22.21,134.341L0,112.131c42.401-42.403,98.694-65.755,158.509-65.755   c59.813,0,116.105,23.351,158.507,65.751l-22.21,22.21c-36.469-36.468-84.874-56.552-136.297-56.552   C107.084,77.785,58.679,97.87,22.21,134.341z"
   id="path2" />
	<path
   style="fill:#f9f9f9"
   d="M63.944,176.075l-22.211-22.21c31.237-31.237,72.709-48.439,116.775-48.439   c44.067,0,85.537,17.201,116.774,48.437l-22.21,22.21c-25.304-25.303-58.888-39.238-94.564-39.238   C122.832,136.835,89.248,150.77,63.944,176.075z"
   id="path4" />
	<path
   style="fill:#f9f9f9"
   d="M105.679,217.811l-22.211-22.21c20.072-20.071,46.723-31.125,75.041-31.125   s54.967,11.053,75.039,31.123l-22.211,22.21c-14.138-14.137-32.898-21.923-52.828-21.923   C138.58,195.885,119.817,203.672,105.679,217.811z"
   id="path6" />
	<path
   style="fill:#f9f9f9"
   d="M158.509,224.154c-12.836,0-24.457,5.204-32.871,13.615l32.871,32.871l32.871-32.871   C182.967,229.357,171.345,224.154,158.509,224.154z"
   id="path8" />
</g>
<g
   id="g12">
</g>
<g
   id="g14">
</g>
<g
   id="g16">
</g>
<g
   id="g18">
</g>
<g
   id="g20">
</g>
<g
   id="g22">
</g>
<g
   id="g24">
</g>
<g
   id="g26">
</g>
<g
   id="g28">
</g>
<g
   id="g30">
</g>
<g
   id="g32">
</g>
<g
   id="g34">
</g>
<g
   id="g36">
</g>
<g
   id="g38">
</g>
<g
   id="g40">
</g>
</svg>